<svg xmlns="http://www.w3.org/2000/svg" viewBox="0 0 64 64">
  <rect width="64" height="64" rx="14" fill="#0f172a" />
  <path
    fill="#7dd3fc"
    d="M18.7 43.6c-3.2 0-5.9-.7-8.1-2.1v-6.2c2.3 1.9 5.1 2.9 8.4 2.9 1.4 0 2.5-.2 3.2-.7.7-.5 1.1-1.2 1.1-2 0-.7-.3-1.3-.9-1.8-.6-.5-1.8-1-3.6-1.6-2.9-.9-5-2.1-6.3-3.5-1.3-1.4-2-3.2-2-5.4 0-2.7 1-4.8 3.1-6.4 2.1-1.6 4.9-2.4 8.5-2.4 2.8 0 5.2.5 7.1 1.6v6c-2-1.4-4.4-2.1-7.2-2.1-1.3 0-2.3.2-3 .7-.7.5-1 1.1-1 2 0 .7.3 1.3.9 1.7.6.4 1.7.9 3.4 1.4 3.1 1 5.3 2.2 6.6 3.7 1.3 1.5 2 3.3 2 5.6 0 2.8-1 5-3.1 6.5-2.1 1.4-5.1 2.1-9.1 2.1Z"
  />
  <path
    fill="#e2e8f0"
    d="M34.2 43v-4.4l12.9-17.7H34.7V15h20.8v4.4L42.6 37.1h13.3V43H34.2Z"
  />
</svg>
