
<svg width="232" height="38" viewBox="0 0 232 38" fill="none" xmlns="http://www.w3.org/2000/svg">
<path d="M32.1001 23.7999C32.1001 16.2999 38.0001 10.3999 45.6001 10.3999C53.1001 10.3999 59.1001 16.2999 59.1001 23.7999C59.1001 31.2999 53.1001 37.1999 45.6001 37.1999C38.0001 37.1999 32.1001 31.2999 32.1001 23.7999ZM45.5001 31.7999C49.8001 31.7999 53.3001 28.2999 53.3001 23.7999C53.3001 19.1999 49.9001 15.6999 45.5001 15.6999C41.1001 15.6999 37.7001 19.1999 37.7001 23.7999C37.8001 28.2999 41.1001 31.7999 45.5001 31.7999Z" fill="#000000"/>
<path d="M60.7002 11.0002H65.5002V4.2002H71.3002V11.0002H78.1002V16.1002H71.3002V27.6002C71.3002 30.2002 72.6002 31.5002 75.1002 31.5002H78.2002V36.6002H74.4002C68.6002 36.6002 65.6002 33.9002 65.6002 28.0002V16.1002H60.8002V11.0002H60.7002Z" fill="#000000"/>
<path d="M82.8999 10.9998H89.0999V13.2998C91.1999 11.1998 93.8999 10.2998 96.0999 10.2998C99.2999 10.2998 102 11.7998 103.6 14.2998C105.6 11.6998 109 10.2998 112.6 10.2998C118.4 10.2998 122.1 14.2998 122.1 20.5998V36.4998H116.3V21.9998C116.3 18.0998 114.4 15.6998 111.1 15.6998C108.2 15.6998 105.4 17.6998 105.4 21.9998V36.4998H99.5999V21.9998C99.5999 18.0998 97.5999 15.6998 94.1999 15.6998C91.2999 15.6998 88.6999 17.7998 88.6999 22.3998V36.4998H82.8999V10.9998Z" fill="#000000"/>
<path d="M125.9 29.2998C125.9 24.2998 130.1 20.7998 137.9 20.7998H142.5V20.1998C142.5 16.9998 140.6 14.9998 137.3 14.9998C134.5 14.9998 132.1 16.7998 131.9 19.3998H126.1C126.4 13.9998 131 10.2998 137.4 10.2998C144.2 10.2998 148.3 14.3998 148.3 20.6998V36.3998H142.6V33.6998C140.9 35.6998 138.1 36.9998 135.4 36.9998C129.7 37.1998 125.9 34.0998 125.9 29.2998ZM135.9 32.5998C139.7 32.5998 142.7 29.4998 142.7 25.4998V25.0998H138.1C133.9 25.0998 131.6 26.4998 131.6 29.1998C131.6 31.1998 133.1 32.5998 135.9 32.5998Z" fill="#000000"/>
<path d="M150.9 11.0002H155.7V4.2002H161.5V11.0002H168.3V16.1002H161.5V27.6002C161.5 30.2002 162.8 31.5002 165.3 31.5002H168.4V36.6002H164.6C158.8 36.6002 155.8 33.9002 155.8 28.0002V16.1002H151V11.0002H150.9Z" fill="#000000"/>
<path d="M171.8 0H178V6.39999H171.8V0ZM177.8 36.5H172V11H177.8V36.5Z" fill="#000000"/>
<path d="M181.8 23.7999C181.8 16.0999 187.7 10.3999 195.1 10.3999C201.3 10.3999 206.5 14.5999 207.2 20.1999H201.3C200.7 17.6999 198 15.7999 194.9 15.7999C190.6 15.7999 187.3 19.1999 187.3 23.7999C187.3 28.3999 190.6 31.7999 194.9 31.7999C198 31.7999 200.7 29.8999 201.3 27.1999H207.1C206.4 33.0999 201.2 37.1999 195 37.1999C187.7 37.1999 181.8 31.3999 181.8 23.7999Z" fill="#000000"/>
<path d="M210.5 28.6999H216C216.2 30.9999 218.1 32.6999 221.1 32.6999C224 32.6999 225.6 31.2999 225.6 29.3999C225.6 23.9999 211 27.7999 211 18.2999C211 13.4999 215 10.3999 220.5 10.3999C226.1 10.3999 230.2 13.0999 230.8 18.1999H225.1C224.8 16.2999 223 14.7999 220.5 14.7999C218.4 14.7999 216.4 15.6999 216.4 17.7999C216.4 22.8999 231.3 18.8999 231.3 28.7999C231.3 33.7999 227.1 37.2999 221.1 37.2999C215.1 37.1999 210.9 33.9999 210.5 28.6999Z" fill="#000000"/>
<path d="M12.1001 0H0.100098V5.8H6.2001H12.5001C19.2001 5.8 24.1001 11.1 24.1001 18.1C24.1001 25.3 19.2001 30.7 12.5001 30.7H6.2001V24.4H0.100098V36.5H12.1001C22.6001 36.5 30.3001 28.7 30.3001 18.1C30.3001 7.69999 22.6001 0 12.1001 0Z" fill="#000000"/>
<path d="M6.10001 12H0V18.1H6.10001V12Z" fill="#000000"/>
</svg>